<svg xmlns="http://www.w3.org/2000/svg" width="500" height="500" viewBox="0 0 500 500" version="1.1"><path d="M 382 30.500 C 385.543 34.075, 388.667 37, 388.942 37 C 389.217 37, 386.543 34.075, 383 30.500 C 379.457 26.925, 376.333 24, 376.058 24 C 375.783 24, 378.457 26.925, 382 30.500 M 304.453 32.250 L 300.500 36.500 304.750 32.547 C 308.702 28.871, 309.460 28, 308.703 28 C 308.540 28, 306.627 29.913, 304.453 32.250 M 342.250 53.689 C 343.212 53.941, 344.788 53.941, 345.750 53.689 C 346.712 53.438, 345.925 53.232, 344 53.232 C 342.075 53.232, 341.288 53.438, 342.250 53.689 M 362 61.500 C 363.866 63.425, 365.617 65, 365.892 65 C 366.167 65, 364.866 63.425, 363 61.500 C 361.134 59.575, 359.383 58, 359.108 58 C 358.833 58, 360.134 59.575, 362 61.500 M 349.079 72.063 C 349.036 72.923, 350.462 74.948, 352.250 76.563 L 355.500 79.500 352.875 76.500 C 351.431 74.850, 350.004 72.825, 349.704 72 C 349.234 70.708, 349.147 70.717, 349.079 72.063 M 339.252 97.500 C 339.263 99.700, 339.468 100.482, 339.707 99.238 C 339.946 97.994, 339.937 96.194, 339.687 95.238 C 339.437 94.282, 339.241 95.300, 339.252 97.500 M 316.004 101.496 C 314.714 102.869, 313.848 104.160, 314.079 104.364 C 314.311 104.569, 315.547 103.446, 316.826 101.868 C 319.689 98.338, 319.185 98.110, 316.004 101.496 M 405.250 112.689 C 406.212 112.941, 407.788 112.941, 408.750 112.689 C 409.712 112.438, 408.925 112.232, 407 112.232 C 405.075 112.232, 404.288 112.438, 405.250 112.689 M 395.264 113.718 C 396.784 113.947, 399.034 113.941, 400.264 113.704 C 401.494 113.467, 400.250 113.279, 397.500 113.286 C 394.750 113.294, 393.744 113.488, 395.264 113.718 M 379.232 121 C 379.232 122.925, 379.438 123.713, 379.689 122.750 C 379.941 121.787, 379.941 120.213, 379.689 119.250 C 379.438 118.287, 379.232 119.075, 379.232 121 M 412.310 124.500 C 412.315 127.800, 412.502 129.029, 412.725 127.232 C 412.947 125.435, 412.943 122.735, 412.715 121.232 C 412.486 119.729, 412.304 121.200, 412.310 124.500 M 233.158 124.558 C 228.036 127.159, 222.854 132.735, 221.451 137.154 C 220.927 138.804, 220.574 138.908, 219.166 137.827 C 218.250 137.123, 220.152 139.308, 223.394 142.682 C 226.635 146.055, 230.576 150.887, 232.152 153.418 C 235.755 159.207, 240.011 169.749, 240.289 173.573 C 240.482 176.236, 240.117 176.584, 236 177.662 C 233.525 178.309, 232.035 178.875, 232.689 178.920 C 233.343 178.964, 234.181 181.025, 234.552 183.500 C 235.198 187.804, 235.373 188, 238.578 188 C 242.948 188, 243.586 189.387, 244.448 200.750 C 245.235 211.119, 245.834 210.359, 237.140 210.010 C 234.742 209.914, 233.017 210.219, 233.307 210.687 C 233.596 211.156, 232.971 213.988, 231.917 216.981 C 230.862 219.974, 230 222.581, 230 222.774 C 230 222.967, 233.014 222.984, 236.697 222.812 C 242.965 222.520, 243.481 222.660, 244.745 225 C 246.181 227.659, 246.058 243.282, 244.589 244.737 C 244.165 245.157, 240.476 245.444, 236.391 245.376 C 229.832 245.266, 229.112 245.430, 230.232 246.781 C 233.894 251.197, 245.025 252.384, 250.582 248.950 C 258.934 243.787, 260.400 235.054, 254.938 223 C 251.626 215.690, 251.530 215.112, 251.178 200.143 C 250.705 180.066, 252.693 172.486, 261.210 161.888 C 264.379 157.945, 264.505 157.890, 265.131 160.157 C 265.641 162.001, 265.770 161.748, 265.736 158.971 C 265.712 157.031, 266.212 154.473, 266.846 153.287 C 268.585 150.038, 268.316 146, 266.360 146 C 264.973 146, 264.806 145.164, 265.279 140.585 C 265.806 135.475, 265.640 134.939, 262.311 131.051 C 257.696 125.658, 251.972 122.838, 244.529 122.291 C 239.419 121.914, 237.686 122.260, 233.158 124.558 M 344.232 126 C 344.232 127.925, 344.438 128.713, 344.689 127.750 C 344.941 126.787, 344.941 125.213, 344.689 124.250 C 344.438 123.287, 344.232 124.075, 344.232 126 M 336.150 131.436 C 336.067 133.050, 335 135.525, 333.778 136.936 L 331.556 139.500 334.359 136.897 C 336.504 134.904, 337.060 133.614, 336.730 131.397 L 336.300 128.500 336.150 131.436 M 309.200 135.200 C 308.540 135.860, 308.052 137.322, 308.116 138.450 C 308.230 140.458, 308.242 140.459, 308.724 138.500 C 308.994 137.400, 309.672 135.938, 310.230 135.250 C 311.525 133.655, 310.781 133.619, 309.200 135.200 M 299.328 141.500 C 299.333 145.350, 299.513 146.802, 299.730 144.728 C 299.946 142.653, 299.943 139.503, 299.722 137.728 C 299.501 135.952, 299.324 137.650, 299.328 141.500 M 358 147.500 C 360.987 150.525, 363.657 153, 363.932 153 C 364.207 153, 361.987 150.525, 359 147.500 C 356.013 144.475, 353.343 142, 353.068 142 C 352.793 142, 355.013 144.475, 358 147.500 M 143 147.500 C 140.571 149.975, 138.809 152, 139.084 152 C 139.359 152, 141.571 149.975, 144 147.500 C 146.429 145.025, 148.191 143, 147.916 143 C 147.641 143, 145.429 145.025, 143 147.500 M 396.264 144.718 C 397.784 144.947, 400.034 144.941, 401.264 144.704 C 402.494 144.467, 401.250 144.279, 398.500 144.286 C 395.750 144.294, 394.744 144.488, 396.264 144.718 M 283.776 148.733 C 286.128 148.945, 289.728 148.942, 291.776 148.727 C 293.824 148.512, 291.900 148.339, 287.500 148.343 C 283.100 148.346, 281.424 148.522, 283.776 148.733 M 348.500 173 C 350.648 175.200, 352.631 177, 352.906 177 C 353.181 177, 351.648 175.200, 349.500 173 C 347.352 170.800, 345.369 169, 345.094 169 C 344.819 169, 346.352 170.800, 348.500 173 M 193.500 172.657 C 188.835 175.108, 183.937 180.109, 181.900 184.500 C 179.582 189.495, 179.436 198.750, 181.595 203.782 C 183.109 207.312, 183.234 207.386, 184.063 205.250 C 184.543 204.012, 185.391 203, 185.947 203 C 187.628 203, 202.770 222.014, 203.301 224.793 C 203.758 227.186, 202.451 238.543, 201.320 242 C 200.963 243.091, 199.717 242.273, 196.751 239 C 194.508 236.525, 193.226 235.258, 193.903 236.183 C 194.676 237.239, 195.052 240.688, 194.914 245.435 C 194.742 251.297, 195.065 253.415, 196.346 254.830 C 198.414 257.115, 198.427 259.390, 196.406 265.321 C 194.459 271.035, 193.484 271.731, 190.765 269.348 C 189.605 268.332, 188.991 268.073, 189.401 268.772 C 189.822 269.492, 189.061 271.986, 187.650 274.511 C 186.206 277.093, 185.562 279.229, 186.122 279.576 C 186.655 279.905, 186.994 282.299, 186.876 284.895 C 186.733 288.023, 187.287 290.678, 188.519 292.763 L 190.379 295.911 194.286 289.387 C 196.435 285.799, 198.718 282.662, 199.360 282.415 C 200.002 282.169, 204.412 283.280, 209.159 284.885 L 217.790 287.802 218.312 285.151 C 219.464 279.300, 218.287 277.585, 211.429 275.125 C 207.898 273.859, 204.761 272.422, 204.458 271.932 C 204.155 271.441, 204.557 269.119, 205.352 266.770 C 206.147 264.422, 207.310 260.587, 207.937 258.250 C 208.564 255.912, 209.622 254.001, 210.289 254.002 C 211.143 254.003, 211.398 252.200, 211.155 247.884 C 210.878 242.963, 211.074 241.923, 212.155 242.574 C 213.263 243.241, 213.273 243.104, 212.212 241.793 C 210.234 239.352, 211.745 227.673, 214.968 220.500 C 218.046 213.647, 219.314 212.341, 223.504 211.717 C 225.152 211.471, 223.800 211.441, 220.500 211.650 C 217.200 211.859, 213.930 211.654, 213.232 211.195 C 212.410 210.653, 211.883 207.412, 211.732 201.970 L 211.500 193.581 220.468 191.446 C 225.400 190.272, 229 189.129, 228.468 188.906 C 227.935 188.683, 226.734 186.843, 225.798 184.817 C 224.530 182.072, 224.402 180.992, 225.298 180.576 C 226.677 179.936, 225.196 180.248, 215.588 182.619 L 208.676 184.325 206.588 181.755 C 205.440 180.342, 203.233 177.344, 201.685 175.093 C 198.576 170.572, 197.868 170.361, 193.500 172.657 M 282.500 180.550 C 267.782 183.386, 268 183.374, 268 181.345 C 268 179.850, 267.808 179.864, 266.022 181.480 C 262.224 184.917, 259 192.995, 259 199.074 C 259 205.595, 260.445 209.489, 265.435 216.408 C 271.573 224.920, 273.260 230.823, 273.770 245.574 L 274.221 258.648 282.009 261.201 L 289.796 263.754 290.159 248.127 C 290.509 233.091, 290.639 232.254, 293.614 226 C 295.314 222.425, 298.572 217.258, 300.853 214.518 C 303.134 211.778, 305 209.197, 305 208.783 C 305 208.368, 302.863 208.871, 300.250 209.900 C 284.803 215.983, 279.377 217.991, 278.373 217.995 C 277.003 218.001, 271.581 196.974, 272.704 196.006 C 273.142 195.628, 279.931 193.600, 287.791 191.498 C 295.651 189.396, 302.325 187.283, 302.623 186.801 C 303.262 185.766, 296.955 178.154, 295.500 178.204 C 294.950 178.223, 289.100 179.278, 282.500 180.550 M 190.128 180.345 C 189.514 181.085, 188.738 183.058, 188.404 184.730 C 187.903 187.237, 188.395 188.445, 191.217 191.634 C 193.098 193.760, 195.708 197.300, 197.016 199.500 C 201.401 206.875, 203.423 206.375, 202.451 198.154 C 201.686 191.678, 198.872 184.557, 195.777 181.262 C 193.349 178.678, 191.730 178.415, 190.128 180.345 M 346.946 206.250 C 350.411 210.020, 352.361 210.843, 353.493 209.011 C 353.849 208.436, 353.428 208.282, 352.486 208.644 C 351.450 209.041, 349.544 208.049, 347.184 205.882 L 343.500 202.500 346.946 206.250 M 144.252 223 C 144.475 223.825, 145.746 224.583, 147.078 224.685 C 148.988 224.830, 149.077 224.753, 147.500 224.319 C 146.400 224.016, 145.128 223.258, 144.674 222.634 C 144.128 221.885, 143.985 222.009, 144.252 223 M 218.750 223.706 C 219.988 223.944, 222.012 223.944, 223.250 223.706 C 224.488 223.467, 223.475 223.272, 221 223.272 C 218.525 223.272, 217.512 223.467, 218.750 223.706 M 103.083 255.359 C 103.313 255.557, 104.850 256.021, 106.500 256.390 C 108.691 256.880, 109.095 256.787, 108 256.046 C 106.650 255.132, 102.080 254.494, 103.083 255.359 M 182 260.500 C 183.866 262.425, 185.617 264, 185.892 264 C 186.167 264, 184.866 262.425, 183 260.500 C 181.134 258.575, 179.383 257, 179.108 257 C 178.833 257, 180.134 258.575, 182 260.500 M 241.655 260.750 C 241.391 261.712, 240.643 264.975, 239.993 268 C 239.343 271.025, 238.370 275.246, 237.832 277.381 L 236.853 281.261 231.926 280.678 C 229.217 280.357, 227 280.497, 227 280.990 C 227 281.483, 227.888 283.391, 228.974 285.231 C 230.060 287.071, 231.085 289.460, 231.253 290.539 C 231.421 291.617, 231.995 293.175, 232.529 294 C 233.063 294.825, 233.652 302.563, 233.837 311.195 C 234.284 332.006, 232.619 338.059, 223.217 349.810 C 216.787 357.845, 215.821 365.729, 220.196 374.453 C 223.029 380.102, 225.723 382.803, 231.416 385.700 C 235.609 387.834, 237.389 388.148, 243.519 387.839 C 249.503 387.537, 251.417 386.983, 254.959 384.528 C 259.944 381.074, 263.628 376.031, 265.080 370.676 C 265.989 367.325, 266.326 367.005, 267.808 368.090 C 268.739 368.771, 267.631 367.566, 265.347 365.414 C 257.783 358.286, 250.140 348.262, 249.445 344.559 C 248.477 339.398, 249.356 338.021, 253.719 337.864 C 255.997 337.782, 256.614 337.556, 255.270 337.297 C 253.695 336.993, 252.694 335.711, 251.862 332.933 C 251.022 330.129, 250.132 329, 248.762 329 C 247.202 329, 246.943 328.484, 247.383 326.250 C 247.681 324.738, 248.221 321.340, 248.583 318.700 C 248.945 316.061, 249.858 313.284, 250.612 312.531 C 251.487 311.656, 251.597 311.032, 250.916 310.805 C 250.211 310.570, 250.088 308.346, 250.552 304.244 C 250.938 300.831, 251.642 298.279, 252.116 298.571 C 252.589 298.864, 252.716 298.424, 252.397 297.593 C 251.660 295.671, 253.879 288.807, 255.011 289.507 C 255.479 289.796, 256.187 289.506, 256.585 288.862 C 257.037 288.131, 256.876 287.959, 256.155 288.405 C 254.531 289.408, 254.706 288.497, 257 284 C 261.527 275.125, 258.603 265.581, 250.030 261.250 C 244.678 258.546, 242.298 258.404, 241.655 260.750 M 90.252 271.500 C 90.263 273.700, 90.468 274.482, 90.707 273.238 C 90.946 271.994, 90.937 270.194, 90.687 269.238 C 90.437 268.282, 90.241 269.300, 90.252 271.500 M 292.566 281.500 C 292.080 284.090, 291.398 285, 289.944 285 C 288.141 285, 271.718 281.601, 267.840 280.426 C 266.627 280.058, 265.859 280.898, 264.982 283.553 C 264.323 285.550, 264.170 287.521, 264.642 287.933 C 265.114 288.345, 270.375 290.199, 276.334 292.054 L 287.167 295.427 286.831 299.662 L 286.494 303.896 289.494 302.144 C 296.317 298.158, 299.548 288.760, 296.453 281.897 C 295.487 279.754, 294.365 278, 293.959 278 C 293.554 278, 292.927 279.575, 292.566 281.500 M 91 284.500 C 91 285.875, 91.388 287, 91.861 287 C 92.335 287, 92.508 285.875, 92.245 284.500 C 91.982 283.125, 91.594 282, 91.383 282 C 91.173 282, 91 283.125, 91 284.500 M 132.853 283.253 C 133.357 283.757, 134.834 284.002, 136.135 283.797 C 138.136 283.482, 137.996 283.342, 135.219 282.881 C 133.231 282.552, 132.298 282.698, 132.853 283.253 M 107.250 287.716 C 108.763 287.945, 111.237 287.945, 112.750 287.716 C 114.263 287.487, 113.025 287.300, 110 287.300 C 106.975 287.300, 105.737 287.487, 107.250 287.716 M 168.500 296 C 170.648 298.200, 172.631 300, 172.906 300 C 173.181 300, 171.648 298.200, 169.500 296 C 167.352 293.800, 165.369 292, 165.094 292 C 164.819 292, 166.352 293.800, 168.500 296 M 315.315 297.922 C 315.417 299.254, 316.175 300.525, 317 300.748 C 317.991 301.015, 318.115 300.872, 317.366 300.326 C 316.742 299.872, 315.984 298.600, 315.681 297.500 C 315.247 295.923, 315.170 296.012, 315.315 297.922 M 118.762 299.707 C 120.006 299.946, 121.806 299.937, 122.762 299.687 C 123.718 299.437, 122.700 299.241, 120.500 299.252 C 118.300 299.263, 117.518 299.468, 118.762 299.707 M 105.250 300.689 C 106.213 300.941, 107.787 300.941, 108.750 300.689 C 109.713 300.438, 108.925 300.232, 107 300.232 C 105.075 300.232, 104.287 300.438, 105.250 300.689 M 90.374 314.500 C 90.376 320.550, 90.541 322.896, 90.740 319.713 C 90.939 316.531, 90.937 311.581, 90.736 308.713 C 90.535 305.846, 90.372 308.450, 90.374 314.500 M 132.252 309.500 C 132.263 311.700, 132.468 312.482, 132.707 311.238 C 132.946 309.994, 132.937 308.194, 132.687 307.238 C 132.437 306.282, 132.241 307.300, 132.252 309.500 M 265.762 327.707 C 267.006 327.946, 268.806 327.937, 269.762 327.687 C 270.718 327.437, 269.700 327.241, 267.500 327.252 C 265.300 327.263, 264.518 327.468, 265.762 327.707 M 309.286 338.699 C 308.068 339.965, 307.436 341, 307.881 341 C 308.856 341, 312.494 337.112, 311.911 336.693 C 311.685 336.531, 310.504 337.434, 309.286 338.699 M 335.500 351 C 337.648 353.200, 339.631 355, 339.906 355 C 340.181 355, 338.648 353.200, 336.500 351 C 334.352 348.800, 332.369 347, 332.094 347 C 331.819 347, 333.352 348.800, 335.500 351 M 96.750 382.706 C 97.987 382.944, 100.013 382.944, 101.250 382.706 C 102.487 382.467, 101.475 382.272, 99 382.272 C 96.525 382.272, 95.513 382.467, 96.750 382.706 M 114.250 383.689 C 115.213 383.941, 116.787 383.941, 117.750 383.689 C 118.713 383.438, 117.925 383.232, 116 383.232 C 114.075 383.232, 113.287 383.438, 114.250 383.689 M 176.292 384.742 C 180.027 384.935, 185.877 384.934, 189.292 384.739 C 192.706 384.545, 189.650 384.387, 182.500 384.389 C 175.350 384.390, 172.556 384.550, 176.292 384.742 M 122.232 396 C 122.232 397.925, 122.438 398.712, 122.689 397.750 C 122.941 396.788, 122.941 395.212, 122.689 394.250 C 122.438 393.288, 122.232 394.075, 122.232 396 M 88.252 397.500 C 88.263 399.700, 88.468 400.482, 88.707 399.238 C 88.946 397.994, 88.937 396.194, 88.687 395.238 C 88.437 394.282, 88.241 395.300, 88.252 397.500 M 113 412.558 C 116.716 413.367, 121.814 413.509, 121.371 412.791 C 121.102 412.356, 118.771 412.052, 116.191 412.116 C 113.611 412.180, 112.175 412.379, 113 412.558 M 91.264 413.718 C 92.784 413.947, 95.034 413.941, 96.264 413.704 C 97.494 413.467, 96.250 413.279, 93.500 413.286 C 90.750 413.294, 89.744 413.488, 91.264 413.718 M 165.667 415.667 C 165.300 416.033, 165.007 416.821, 165.015 417.417 C 165.025 418.085, 165.327 418.034, 165.803 417.285 C 166.314 416.480, 170.446 415.961, 178.038 415.748 L 189.500 415.428 177.917 415.214 C 171.546 415.096, 166.033 415.300, 165.667 415.667 M 86.252 420.500 C 86.263 422.700, 86.468 423.482, 86.707 422.238 C 86.946 420.994, 86.937 419.194, 86.687 418.238 C 86.437 417.282, 86.241 418.300, 86.252 420.500 M 198.300 425 C 198.300 428.025, 198.487 429.262, 198.716 427.750 C 198.945 426.238, 198.945 423.762, 198.716 422.250 C 198.487 420.738, 198.300 421.975, 198.300 425 M 110.250 427.689 C 111.213 427.941, 112.787 427.941, 113.750 427.689 C 114.713 427.438, 113.925 427.232, 112 427.232 C 110.075 427.232, 109.287 427.438, 110.250 427.689 M 121.232 440 C 121.232 441.925, 121.438 442.712, 121.689 441.750 C 121.941 440.788, 121.941 439.212, 121.689 438.250 C 121.438 437.288, 121.232 438.075, 121.232 440 M 140.250 460.716 C 141.762 460.945, 144.238 460.945, 145.750 460.716 C 147.262 460.487, 146.025 460.300, 143 460.300 C 139.975 460.300, 138.738 460.487, 140.250 460.716 M 139.750 492.723 C 141.537 492.945, 144.463 492.945, 146.250 492.723 C 148.037 492.502, 146.575 492.320, 143 492.320 C 139.425 492.320, 137.963 492.502, 139.750 492.723" stroke="none" fill="#d5dbdf" fill-rule="evenodd"/><path d="M 344.063 11.823 C 338.786 12.614, 324.472 18.331, 317.813 22.307 C 308.684 27.759, 293.973 43.388, 296.082 45.395 C 297.740 46.974, 322.714 62.987, 323.527 62.993 C 324.092 62.997, 326.939 61.208, 329.853 59.018 C 338.594 52.450, 344.947 51.721, 355 56.133 C 361.021 58.775, 364.606 62.352, 368.072 69.177 C 369.658 72.300, 371.387 75.121, 371.914 75.447 C 372.441 75.772, 379.088 73.610, 386.686 70.641 L 400.500 65.242 400.431 61.352 C 400.389 59.015, 398.832 54.275, 396.530 49.481 C 393.338 42.831, 390.931 39.732, 382.099 30.905 C 373.389 22.197, 370.155 19.672, 363.951 16.736 C 356.260 13.097, 348.445 11.166, 344.063 11.823 M 289.296 57.186 C 287.281 59.695, 280.945 74.413, 281.385 75.561 C 281.629 76.196, 283.188 76.988, 284.849 77.320 C 286.511 77.652, 292.240 79.966, 297.581 82.462 C 307.750 87.214, 310.351 87.820, 311.691 85.750 C 314.510 81.395, 317.756 72.411, 316.888 71.366 C 315.284 69.432, 295.323 57.119, 292.744 56.472 C 291.311 56.112, 289.928 56.398, 289.296 57.186 M 334.478 66.267 C 327.541 71.047, 320.018 85, 324.378 85 C 325.135 85, 326.373 84.248, 327.128 83.328 C 327.882 82.409, 331.567 79.668, 335.316 77.237 C 339.066 74.806, 342.313 72.296, 342.532 71.659 C 343.156 69.850, 341.570 63.690, 340.379 63.293 C 339.791 63.097, 337.136 64.435, 334.478 66.267 M 350.413 68.729 L 349.704 73.459 357.033 80.229 C 361.064 83.953, 364.787 87, 365.306 87 C 368.008 87, 361.839 72.496, 356.880 67.190 C 352.711 62.729, 351.261 63.074, 350.413 68.729 M 388.058 82.046 C 381.766 84.211, 376.236 86.364, 375.770 86.830 C 374.998 87.602, 378.171 104.504, 379.300 105.633 C 379.566 105.899, 381.357 105.460, 383.280 104.656 C 385.202 103.853, 391.214 102.193, 396.638 100.967 C 402.062 99.741, 407.013 98.235, 407.641 97.619 C 408.494 96.782, 408.237 94.230, 406.625 87.500 C 403.984 76.476, 404.124 76.518, 388.058 82.046 M 276.903 88.995 C 274.830 90.206, 270.251 100.517, 269.828 104.924 C 269.545 107.875, 269.942 108.609, 272.691 110.232 C 276.151 112.274, 299.252 117.501, 301.317 116.709 C 303.128 116.014, 306.514 101.114, 305.167 99.767 C 304.445 99.045, 278.500 87.627, 278.500 88.032 C 278.500 88.048, 277.781 88.481, 276.903 88.995 M 328 93.994 C 316.353 101.241, 314.460 103.356, 313.039 110.715 C 312.424 113.897, 311.705 117.513, 311.442 118.750 C 311.178 119.987, 311.354 121, 311.834 121 C 312.314 121, 318.399 117.585, 325.357 113.410 C 334.110 108.159, 338.151 105.155, 338.476 103.660 C 339.452 99.165, 339.469 88.694, 338.500 88.393 C 337.950 88.222, 333.225 90.743, 328 93.994 M 348.648 90.750 C 348.380 91.713, 347.880 95.425, 347.536 99 L 346.911 105.500 357.943 113.750 C 364.011 118.287, 369.487 122, 370.113 122 C 371.649 122, 370.747 106.451, 368.997 102.773 C 368.283 101.273, 366.009 99.164, 363.943 98.088 C 361.877 97.011, 358.086 94.525, 355.517 92.565 C 350.220 88.522, 349.333 88.287, 348.648 90.750 M 395 113.961 C 390.875 114.324, 385.849 115.179, 383.831 115.861 L 380.161 117.102 379.471 124.471 C 379.091 128.524, 378.980 132.439, 379.224 133.170 C 379.575 134.219, 382.820 134.425, 394.584 134.145 C 402.788 133.950, 410.063 133.332, 410.750 132.773 C 412.054 131.711, 412.552 117.603, 411.393 114.582 C 410.735 112.867, 408.432 112.780, 395 113.961 M 345.552 120.250 C 345.340 120.938, 344.891 124.172, 344.553 127.437 L 343.939 133.374 354.719 143.655 C 360.649 149.310, 366.267 153.951, 367.205 153.968 C 368.997 154.002, 369.368 152.644, 370.522 141.814 L 371.128 136.127 359.727 127.564 C 348.291 118.974, 346.267 117.930, 345.552 120.250 M 322.020 127.895 C 309.005 136.047, 308.287 136.880, 308.115 144 C 307.949 150.889, 308.952 151.021, 319.535 145.500 C 324.806 142.750, 330.671 139.150, 332.567 137.500 C 335.736 134.742, 336.065 133.915, 336.651 127.250 C 337.164 121.405, 337.017 120.007, 335.894 120.038 C 335.127 120.060, 328.884 123.595, 322.020 127.895 M 266.046 133.470 C 265.334 139.858, 264.971 145.304, 265.239 145.573 C 266.400 146.733, 278.334 147.989, 288.250 147.994 L 299 148 299.009 143.250 C 299.013 140.637, 299.289 136.240, 299.621 133.478 L 300.225 128.456 285.362 125.564 C 277.188 123.973, 269.789 122.488, 268.920 122.264 C 267.600 121.923, 267.128 123.761, 266.046 133.470 M 181.277 127.511 C 173.931 129.108, 165.129 132.864, 155.633 138.456 C 148.203 142.831, 135 155.975, 135 158.996 C 135 160.640, 154.624 178.481, 157.827 179.748 C 158.557 180.037, 161.257 178.210, 163.827 175.689 C 170.152 169.483, 175.842 167.049, 184.093 167.022 C 193.039 166.992, 197.963 169.660, 203.476 177.524 C 205.780 180.811, 208.303 183.602, 209.082 183.726 C 209.862 183.850, 217.250 182.258, 225.500 180.188 L 240.500 176.425 240.289 173.543 C 240.010 169.742, 235.741 159.185, 232.152 153.418 C 228.145 146.981, 218.942 137.856, 210.941 132.390 C 201.553 125.975, 194.036 124.739, 181.277 127.511 M 391.796 144.937 C 385.358 145.247, 379.671 145.950, 379.157 146.500 C 377.702 148.056, 376.064 159.334, 377.107 160.612 C 377.607 161.223, 380.149 161.996, 382.758 162.330 C 385.366 162.664, 391.724 163.589, 396.886 164.385 C 402.048 165.181, 406.869 165.604, 407.598 165.324 C 409.326 164.661, 409.739 163.054, 410.546 153.843 C 411.165 146.789, 411.057 146.101, 409.174 145.093 C 408.051 144.492, 406.314 144.084, 405.316 144.187 C 404.317 144.291, 398.233 144.628, 391.796 144.937 M 324.043 154.003 C 312.255 160.911, 310.500 162.853, 310.500 168.987 C 310.500 172.054, 311.071 174.500, 312.005 175.434 C 313.346 176.775, 314.543 176.288, 322.935 170.989 C 328.118 167.716, 332.698 164.488, 333.113 163.817 C 335.180 160.473, 335.234 148.954, 333.183 149.023 C 332.807 149.036, 328.694 151.277, 324.043 154.003 M 343.111 151.208 C 342.604 152.540, 341.872 156.179, 341.482 159.294 L 340.775 164.958 347.502 171.229 C 357.526 180.574, 361.738 182.852, 363.555 179.911 C 364.932 177.683, 366.798 168.944, 366.302 167.047 C 366.020 165.967, 362.349 162.510, 358.144 159.366 C 353.940 156.221, 349.045 152.554, 347.266 151.217 L 344.032 148.787 343.111 151.208 M 265.994 159.750 C 265.987 161.870, 268.250 182.383, 268.536 182.786 C 268.922 183.332, 302.378 177.022, 303.118 176.263 C 304.018 175.340, 301.199 161.011, 299.770 159.250 C 299.033 158.342, 294.272 158, 282.378 158 C 267.449 158, 265.999 158.155, 265.994 159.750 M 122.405 179.147 C 119.886 183.079, 117.623 186.820, 117.377 187.461 C 116.787 188.998, 119.045 190.901, 127.500 195.991 C 131.350 198.308, 135.924 201.559, 137.664 203.215 C 139.404 204.870, 141.291 205.938, 141.858 205.588 C 142.425 205.237, 144.989 201.581, 147.556 197.462 C 151.609 190.960, 152.044 189.758, 150.864 188.336 C 148.405 185.373, 130.131 172, 128.542 172 C 127.687 172, 124.925 175.216, 122.405 179.147 M 372.527 174.250 C 370.238 184.318, 370.033 186.194, 371.022 188.041 C 371.599 189.118, 372.179 190, 372.311 190 C 372.443 190, 378.608 191.785, 386.010 193.966 C 393.412 196.147, 399.787 197.610, 400.177 197.216 C 401.669 195.708, 407 181.993, 407 179.662 C 407 176.996, 405.375 176, 401.028 176 C 399.484 176, 393.846 175.100, 388.500 174 C 375.616 171.349, 373.177 171.387, 372.527 174.250 M 173.337 178.459 C 166.255 183.228, 158.441 193, 161.709 193 C 162.713 193, 179.368 185.882, 180.133 185.126 C 180.481 184.782, 181.071 182.363, 181.444 179.750 C 182.041 175.571, 181.903 175, 180.298 175 C 179.294 175, 176.162 176.556, 173.337 178.459 M 190.128 180.345 C 189.514 181.085, 188.738 183.058, 188.404 184.730 C 187.903 187.237, 188.395 188.445, 191.217 191.634 C 193.098 193.760, 195.708 197.300, 197.016 199.500 C 201.401 206.875, 203.423 206.375, 202.451 198.154 C 201.686 191.678, 198.872 184.557, 195.777 181.262 C 193.349 178.678, 191.730 178.415, 190.128 180.345 M 322.205 182.946 C 318.742 184.455, 315.494 186.106, 314.987 186.613 C 314.213 187.387, 317.155 199.488, 318.426 200.759 C 319.121 201.454, 329.758 194.073, 330.374 192.468 C 331.559 189.381, 331.085 179.993, 329.750 180.101 C 329.063 180.156, 325.667 181.436, 322.205 182.946 M 339.655 180.750 C 339.201 181.487, 337 192.604, 337 194.165 C 337 195.592, 350.202 209, 351.608 209 C 353.017 209, 355.706 203.579, 356.688 198.761 C 357.172 196.382, 356.223 194.972, 349.449 188.011 C 341.795 180.145, 340.583 179.247, 339.655 180.750 M 287.803 191.384 C 279.719 193.681, 272.839 195.828, 272.513 196.154 C 271.551 197.115, 277.143 218, 278.363 218 C 280.181 218, 308.390 206.854, 309.737 205.604 C 310.714 204.696, 310.491 202.678, 308.672 195.978 C 306.831 189.198, 305.983 187.471, 304.435 187.353 C 303.371 187.272, 295.886 189.086, 287.803 191.384 M 224 190.564 C 218.225 191.897, 212.874 193.226, 212.108 193.517 C 210.996 193.940, 210.854 195.693, 211.400 202.240 C 211.780 206.801, 212.619 210.791, 213.291 211.241 C 213.956 211.685, 216.975 211.798, 220 211.492 C 224.772 211.008, 239.947 210.069, 243.825 210.018 C 244.880 210.004, 245.007 208.112, 244.448 200.750 C 244.063 195.662, 243.338 190.713, 242.838 189.750 C 241.603 187.370, 236.965 187.571, 224 190.564 M 166.500 202 C 163.750 203.015, 160.073 203.880, 158.328 203.922 C 154.157 204.024, 149.018 209.931, 146.699 217.285 C 145.765 220.250, 145 222.974, 145 223.338 C 145 224.663, 148.739 223.884, 160.464 220.115 L 172.428 216.270 173.581 211.749 C 174.216 209.262, 175.040 205.601, 175.413 203.614 C 176.034 200.302, 175.899 200.006, 173.795 200.078 C 172.533 200.120, 169.250 200.985, 166.500 202 M 363.561 202.277 C 362.764 203.500, 361.127 207.081, 359.922 210.237 C 358.117 214.966, 357.958 216.244, 359.013 217.516 C 359.718 218.365, 365.479 223.117, 371.816 228.077 C 379.453 234.055, 384.039 236.995, 385.418 236.797 C 387.011 236.570, 388.286 234.504, 390.849 228 C 392.691 223.325, 394.426 218.110, 394.704 216.412 L 395.209 213.323 382.488 207.593 C 364.306 199.402, 365.261 199.670, 363.561 202.277 M 106.301 208.750 C 104.878 211.912, 103.665 216.300, 103.606 218.500 L 103.500 222.500 114.271 226.208 C 120.196 228.248, 126.033 230.610, 127.244 231.458 C 131.424 234.386, 132.560 233.501, 134.947 225.462 C 136.177 221.315, 136.932 217.264, 136.623 216.459 C 135.926 214.643, 127.382 209.133, 124 208.319 C 122.625 207.988, 119.660 206.655, 117.412 205.358 C 110.903 201.603, 109.298 202.093, 106.301 208.750 M 184.477 204.250 C 182.900 208.537, 181.020 215.830, 181.011 217.699 C 180.999 220.104, 199.780 243.550, 200.860 242.478 C 201.923 241.424, 203.806 227.691, 203.278 224.841 C 202.757 222.021, 187.663 203, 185.948 203 C 185.392 203, 184.730 203.563, 184.477 204.250 M 225.275 223.272 C 211.513 224.392, 212.543 223.583, 211.519 234.077 C 211.035 239.048, 211.213 240.932, 212.249 241.792 C 214.073 243.306, 237.518 246.313, 241.570 245.553 C 244.145 245.070, 244.879 244.357, 245.380 241.852 C 246.409 236.705, 246.051 227.660, 244.712 225 C 243.206 222.006, 242.075 221.905, 225.275 223.272 M 152.078 233.370 L 139.656 237.626 137.727 245.912 C 136.369 251.744, 136.111 254.511, 136.857 255.257 C 137.602 256.002, 141.853 254.557, 151.208 250.378 C 165.767 243.875, 167.110 242.551, 168.583 233.250 C 169.217 229.243, 169.120 229.003, 166.878 229.057 C 165.570 229.089, 158.910 231.030, 152.078 233.370 M 98.560 235.269 C 96.834 237.902, 94.268 251.601, 95.305 252.639 C 96.080 253.413, 105.711 255.708, 113.500 256.974 C 116.250 257.422, 120.180 258.109, 122.234 258.502 C 126.554 259.329, 127.227 258.332, 128.466 249.277 C 129.178 244.071, 129.169 244.049, 125.840 242.549 C 120.445 240.118, 101.865 233, 100.917 233 C 100.438 233, 99.377 234.021, 98.560 235.269 M 176.704 234.695 C 176.438 235.138, 175.488 238.380, 174.593 241.899 C 173.076 247.863, 173.080 248.475, 174.656 250.899 C 177.100 254.656, 192.203 271, 193.233 271 C 194.335 271, 197.025 264.624, 197.714 260.378 C 198.186 257.465, 197.318 256.014, 189.004 245.821 C 180.226 235.059, 177.800 232.865, 176.704 234.695 M 207.540 259.750 C 206.659 262.913, 205.502 266.534, 204.969 267.797 C 204.436 269.060, 204 270.539, 204 271.083 C 204 272.504, 212.083 275.778, 222.500 278.577 C 233.324 281.485, 236.672 281.636, 237.397 279.250 C 238.780 274.699, 242.015 258.681, 241.629 258.295 C 241.173 257.839, 213.737 254.021, 210.821 254.008 C 209.627 254.002, 208.679 255.662, 207.540 259.750 M 264.994 267.607 C 261.970 273.216, 260.185 277.585, 260.704 278.104 C 261.700 279.100, 286.331 284.970, 289.593 284.988 C 291.360 284.998, 292.023 283.773, 293.843 277.130 C 296.454 267.603, 296.495 266.416, 294.250 265.499 C 289.823 263.690, 272.477 258, 271.390 258 C 270.720 258, 267.842 262.323, 264.994 267.607 M 147.101 262.514 C 141.381 264.351, 135.872 266.684, 134.858 267.698 C 133.517 269.039, 132.944 271.307, 132.757 276.021 L 132.500 282.500 137 282.412 C 142.501 282.305, 156.632 276.502, 158.528 273.572 C 159.265 272.432, 160.181 268.688, 160.563 265.250 C 161.404 257.687, 161.848 257.777, 147.101 262.514 M 168.563 265.250 C 166.288 270.787, 165.793 274.742, 167.068 277.191 C 168.387 279.724, 178.913 293.083, 180.464 294.193 C 182.752 295.829, 187 289.062, 187 283.781 C 187 281.119, 185.489 278.635, 179.369 271.231 C 175.172 266.154, 171.324 262, 170.818 262 C 170.312 262, 169.297 263.462, 168.563 265.250 M 92.250 264.628 C 90.889 265.215, 90.626 279.431, 91.892 284 C 92.577 286.474, 92.732 286.507, 106.542 287.127 C 114.219 287.471, 121.235 287.371, 122.134 286.904 C 123.732 286.072, 124.224 284.333, 125.556 274.796 C 126.314 269.369, 128.095 270.245, 110 267.142 C 103.675 266.057, 97.375 264.927, 96 264.630 C 94.625 264.333, 92.938 264.332, 92.250 264.628 M 298.975 281.565 C 297.080 286.549, 297.788 290.942, 301.005 294.159 C 302.657 295.811, 304.533 296.989, 305.174 296.775 C 307.326 296.058, 309.150 288.870, 308.010 285.599 C 305.731 279.063, 300.769 276.847, 298.975 281.565 M 336.110 288.818 C 333.294 299.253, 333.361 299.835, 337.586 301.600 C 347.094 305.573, 362.946 310.651, 363.934 310.041 C 365.629 308.993, 370.321 290.921, 369.191 289.791 C 368.080 288.680, 342.551 281, 339.969 281 C 338.632 281, 337.722 282.842, 336.110 288.818 M 195.638 287.250 C 192.073 292.856, 190 296.570, 190 297.347 C 190 297.610, 195.063 300.629, 201.250 304.056 C 207.438 307.483, 214.393 311.379, 216.707 312.713 L 220.913 315.139 226.477 304.046 C 230.370 296.284, 231.659 292.813, 230.770 292.488 C 221.298 289.019, 200.658 282, 199.930 282 C 199.405 282, 197.473 284.363, 195.638 287.250 M 321.210 288.129 C 317.690 289.144, 316 292.009, 316 296.958 C 316 300.436, 317.738 301.200, 322.394 299.771 C 326.143 298.621, 326.447 298.114, 327.515 291.250 C 328.251 286.519, 327.714 286.253, 321.210 288.129 M 256.264 289.250 C 254.608 291.360, 251.943 300.345, 252.744 301.114 C 253.917 302.238, 270.132 305.855, 277.289 306.589 C 283.269 307.201, 283.828 307.084, 285.357 304.901 C 286.261 303.611, 287 300.936, 287 298.956 L 287 295.357 275.250 291.670 C 262.934 287.805, 257.901 287.164, 256.264 289.250 M 142.826 293.523 C 138.055 295.955, 133.830 298.466, 133.436 299.103 C 132.596 300.462, 132.623 311.956, 133.468 312.801 C 134.220 313.554, 149.683 306.013, 151.459 304.027 C 152.971 302.337, 155.292 291.281, 154.428 289.884 C 153.513 288.402, 151.844 288.926, 142.826 293.523 M 161.931 294.680 C 161.371 296.155, 160.650 299.274, 160.330 301.613 C 159.804 305.446, 160.128 306.359, 163.623 310.890 C 165.756 313.653, 167.725 315.921, 168 315.928 C 169.010 315.955, 175.999 305.546, 175.977 304.048 C 175.956 302.643, 164.981 292, 163.553 292 C 163.222 292, 162.492 293.206, 161.931 294.680 M 102.115 301.081 C 97.503 301.526, 93.116 302.125, 92.365 302.413 C 90.390 303.171, 90.401 326.258, 92.377 327.898 C 93.441 328.781, 97.135 327.869, 108.627 323.887 C 116.807 321.052, 124.063 318.288, 124.750 317.744 C 126.081 316.691, 126.434 308.422, 125.375 303.125 L 124.750 300 117.625 300.136 C 113.706 300.211, 106.727 300.636, 102.115 301.081 M 293.200 303.200 C 291.021 305.379, 291.823 309.977, 294.923 313.077 C 298.557 316.711, 299.761 316.744, 301.116 313.250 C 301.995 310.986, 301.789 309.749, 299.953 306.250 C 297.704 301.966, 295.451 300.949, 293.200 303.200 M 179.472 313.689 C 176.849 317.435, 174.658 321.118, 174.602 321.874 C 174.546 322.629, 180.400 328.328, 187.611 334.537 L 200.721 345.828 207.319 336.206 C 210.948 330.913, 213.823 326.517, 213.708 326.437 C 199.274 316.319, 186.807 307.863, 185.696 307.437 C 184.717 307.061, 182.676 309.111, 179.472 313.689 M 330.138 309.334 C 328.674 311.098, 327.080 319.512, 327.945 320.911 C 329.029 322.665, 353.200 333.115, 355.433 332.796 C 357.772 332.461, 362.228 324.633, 361.779 321.647 C 361.573 320.283, 357.948 318.371, 348.030 314.395 C 330.951 307.548, 331.493 307.702, 330.138 309.334 M 315.354 310.682 C 312.297 311.294, 309.783 314.439, 310.170 317.168 C 310.444 319.105, 311.008 319.447, 313.500 319.190 C 317.148 318.812, 319.841 316.347, 320.219 313.041 C 320.514 310.461, 319.328 309.886, 315.354 310.682 M 250.735 312.408 C 249.522 313.621, 246.542 327.876, 247.336 328.669 C 247.767 329.100, 280.146 326.187, 280.662 325.671 C 280.941 325.393, 281.412 323.344, 281.711 321.119 C 282.384 316.099, 281.789 315.802, 266.500 313.513 C 260.450 312.608, 254.760 311.656, 253.855 311.399 C 252.951 311.142, 251.547 311.596, 250.735 312.408 M 289.153 323.247 C 287.533 324.867, 287.720 328.607, 289.622 332.615 C 291.904 337.425, 292.748 337.595, 294.642 333.625 C 296.057 330.658, 296.112 329.684, 295.014 327.033 C 293.471 323.308, 290.811 321.589, 289.153 323.247 M 307.571 331.368 C 304.953 333.837, 304 335.572, 304 337.868 C 304 343.388, 308.839 341.224, 312.456 334.086 C 316.042 327.010, 313.621 325.663, 307.571 331.368 M 322.031 332.926 C 320.479 336.671, 321.294 339.150, 324.749 341.198 C 326.262 342.095, 331.258 346.324, 335.851 350.595 C 342.586 356.859, 344.522 358.167, 345.851 357.356 C 348.326 355.845, 354.122 346.881, 353.790 345.077 C 353.482 343.404, 327.815 330, 324.919 330 C 323.997 330, 322.697 331.317, 322.031 332.926 M 263.583 336.360 C 254.628 337.738, 249.511 338.967, 249.232 339.805 C 248.052 343.345, 250.453 348.437, 257.012 356.308 C 268.103 369.616, 278.558 375.715, 295.215 378.592 C 308.162 380.828, 315.874 380.208, 324.288 376.257 C 332.218 372.533, 340 367.181, 340 365.450 C 340 364.471, 324.954 350.719, 317.792 345.152 C 316.349 344.031, 315.205 344.154, 310.426 345.942 C 305.517 347.778, 304.030 347.922, 299.192 347.028 C 291.603 345.625, 287.037 343.059, 284.840 338.962 C 283.126 335.767, 280.900 334.087, 278.500 334.179 C 277.950 334.200, 271.237 335.181, 263.583 336.360 M 90.818 383.112 C 89.656 383.831, 88.098 399.628, 88.823 403.343 C 89.107 404.796, 90.962 405, 103.882 405 C 114.134 405, 119.114 404.620, 120.249 403.750 C 121.495 402.795, 121.952 400.382, 122.190 393.513 L 122.500 384.525 116 383.848 C 104.968 382.699, 92.096 382.323, 90.818 383.112 M 167.512 385.981 C 166.435 387.724, 165.683 403.686, 166.650 404.283 C 168.214 405.250, 196.898 408.435, 197.612 407.721 C 198.191 407.143, 197.399 400.389, 195.331 388.250 L 194.777 385 181.448 385 C 173.811 385, 167.859 385.419, 167.512 385.981 M 129.516 399.715 C 128.834 405.181, 128.927 405.530, 131.651 407.710 C 134.494 409.985, 137.470 410.670, 138.344 409.250 C 138.598 408.837, 139.118 406.407, 139.501 403.850 L 140.197 399.200 135.761 396.600 C 133.321 395.170, 131.078 394, 130.777 394 C 130.477 394, 129.909 396.572, 129.516 399.715 M 153.567 395.946 C 149.662 398.521, 148.078 401.613, 148.035 406.750 C 148.005 410.379, 148.299 411, 150.050 411 C 153.657 411, 157.745 408.171, 158.892 404.881 C 160.339 400.730, 160.301 396.701, 158.800 395.200 C 157.237 393.637, 157.025 393.667, 153.567 395.946 M 93 413.898 L 87.500 414.500 87.184 418.920 C 86.754 424.934, 87.608 427.741, 90.108 428.534 C 93.179 429.509, 118.881 426.849, 120.054 425.434 C 120.598 424.780, 121.145 421.827, 121.271 418.872 L 121.500 413.500 110 413.398 C 103.675 413.342, 96.025 413.567, 93 413.898 M 165.607 417.582 C 165.273 418.452, 165 420.691, 165 422.559 C 165 427.050, 167.501 428.603, 177 430.013 C 181.125 430.625, 187.149 431.536, 190.387 432.037 C 193.625 432.538, 196.663 432.708, 197.137 432.415 C 197.612 432.122, 198 428.961, 198 425.390 C 198 418.927, 197.984 418.891, 194.532 417.449 C 189.352 415.285, 166.448 415.390, 165.607 417.582 M 151.806 420.486 C 148.160 422.963, 145.845 428.275, 147.649 430.022 C 148.848 431.184, 153.111 430.179, 155.896 428.079 C 158.567 426.064, 159.054 421.626, 156.847 419.418 C 155.642 418.213, 154.928 418.365, 151.806 420.486 M 129.317 420.617 C 128.324 423.204, 130.292 427.310, 133.320 428.969 C 135.885 430.375, 136.222 430.354, 137.451 428.704 C 139.200 426.354, 138.365 423.432, 135.242 420.976 C 132.194 418.578, 130.147 418.454, 129.317 420.617 M 102 436.722 C 89.591 438.183, 87 439.021, 87 441.573 C 87 444.492, 89.194 452.883, 90.381 454.507 C 91.556 456.113, 92.199 455.991, 99.572 452.765 C 103.932 450.857, 109.975 448.495, 113 447.516 C 116.025 446.536, 119.063 445.290, 119.750 444.745 C 121.605 443.276, 121.354 436.350, 119.418 435.607 C 117.528 434.882, 117.764 434.867, 102 436.722 M 129.621 437.713 C 128.522 438.812, 130.178 448.407, 131.784 450.250 C 135.959 455.039, 138.876 448.528, 135.490 441.980 C 133.911 438.928, 130.723 436.610, 129.621 437.713 M 164.035 438.934 C 163.466 439.998, 163 442.188, 163 443.800 C 163 446.613, 163.596 446.997, 177.739 453.287 C 187.871 457.793, 192.700 459.485, 193.187 458.698 C 194.694 456.259, 196.234 443.834, 195.161 442.761 C 194.354 441.954, 169.400 437.070, 165.785 437.012 C 165.392 437.005, 164.605 437.870, 164.035 438.934 M 149 442 C 146.590 444.410, 146.132 452, 148.396 452 C 150.580 452, 156 445.204, 156 442.465 C 156 440.502, 155.491 440, 153.500 440 C 152.125 440, 150.100 440.900, 149 442 M 107.500 457.483 C 97.681 461.488, 94.427 463.261, 94.202 464.729 C 93.538 469.061, 106.410 482.669, 115.554 487.301 C 124.013 491.587, 147.502 493.313, 158.540 490.459 C 170.461 487.378, 189.328 473.904, 187.692 469.641 C 187.184 468.317, 164.809 456.019, 160.332 454.603 C 158.731 454.097, 157.268 454.703, 154.743 456.921 C 148.136 462.722, 137.278 462.312, 128.800 455.942 C 125.915 453.774, 122.867 452.041, 122.027 452.090 C 121.187 452.140, 114.650 454.567, 107.500 457.483" stroke="none" fill="#1a7270" fill-rule="evenodd"/></svg>